<svg fill="#000000" xmlns="http://www.w3.org/2000/svg"  viewBox="0 0 16 16" width="16px" height="16px"><path d="M 7.5 1 C 3.914063 1 1 3.914063 1 7.5 C 1 11.085938 3.914063 14 7.5 14 C 11.085938 14 14 11.085938 14 7.5 C 14 3.914063 11.085938 1 7.5 1 Z M 11.144531 3.394531 C 11.660156 3.851563 12.089844 4.40625 12.40625 5.023438 C 12.417969 5.148438 12.429688 5.265625 12.429688 5.398438 C 12.429688 5.964844 12.324219 6.601563 12.003906 7.398438 L 10.34375 12.199219 C 10.023438 12.394531 9.675781 12.558594 9.3125 12.6875 C 9.3125 12.683594 9.3125 12.683594 9.3125 12.683594 L 7.597656 7.984375 L 5.953125 12.773438 C 5.628906 12.679688 5.320313 12.554688 5.023438 12.40625 L 2.445313 5.335938 C 2.582031 5.023438 2.742188 4.722656 2.933594 4.4375 C 3.027344 4.441406 3.121094 4.445313 3.199219 4.445313 C 3.78125 4.445313 4.6875 4.375 4.6875 4.375 C 4.988281 4.355469 5.023438 4.796875 4.722656 4.832031 C 4.722656 4.832031 4.421875 4.867188 4.085938 4.886719 L 6.113281 10.925781 L 7.335938 7.265625 L 6.46875 4.882813 C 6.164063 4.867188 5.882813 4.832031 5.882813 4.832031 C 5.578125 4.8125 5.617188 4.355469 5.914063 4.375 C 5.914063 4.375 6.835938 4.445313 7.382813 4.445313 C 7.96875 4.445313 8.867188 4.375 8.867188 4.375 C 9.171875 4.355469 9.207031 4.796875 8.90625 4.832031 C 8.90625 4.832031 8.601563 4.867188 8.265625 4.886719 L 10.28125 10.878906 L 10.839844 9.019531 C 11.121094 8.296875 11.265625 7.695313 11.265625 7.21875 C 11.265625 6.53125 11.019531 6.050781 10.804688 5.679688 C 10.523438 5.222656 10.253906 4.832031 10.253906 4.375 C 10.253906 3.875 10.625 3.421875 11.144531 3.394531 Z"/></svg>